<svg width="48" height="48" viewBox="0 0 48 48" fill="none" xmlns="http://www.w3.org/2000/svg">
  <defs>
    <linearGradient id="mm" x1="4" y1="6" x2="44" y2="42" gradientUnits="userSpaceOnUse">
      <stop stop-color="#7c3aed"/>
      <stop offset="1" stop-color="#14b8a6"/>
    </linearGradient>
  </defs>
  <path d="M24 41C24 41 6 30.5 6 17.5C6 11.7 10.7 7 16.5 7C20 7 23.1 8.8 24 11.5C24.9 8.8 28 7 31.5 7C37.3 7 42 11.7 42 17.5C42 30.5 24 41 24 41Z" fill="url(#mm)"/>
  <path d="M15 23C17 20 19 26 21.5 23C24 20 24.5 25 27 22.5C29 20.5 31 24 33 22" stroke="white" stroke-width="2.2" stroke-linecap="round" stroke-linejoin="round" fill="none"/>
</svg>
